<svg aria-hidden="true" style="position: absolute; width: 0; height: 0; overflow: hidden;" version="1.1" xmlns="http://www.w3.org/2000/svg" xmlns:xlink="http://www.w3.org/1999/xlink">
<defs>
<symbol id="viber" viewBox="0 0 32 32">
<path fill="#fff" style="fill: var(--color1, #fff)" d="M16 3.333c-1.759 0-7.113 0-10.073 2.703-1.763 1.756-2.593 4.293-2.593 7.964v2c0 3.671 0.831 6.208 2.614 7.984 0.888 0.81 2.099 1.457 3.579 1.905l0.474 0.143v3.552c0 0.417 0.121 0.417 0.161 0.417 0.082 0 0.213-0.026 0.463-0.247 0.060-0.059 0.5-0.535 2.64-2.933l0.216-0.242 0.323 0.021c0.717 0.045 1.456 0.068 2.197 0.068 1.759 0 7.113 0 10.073-2.703 1.762-1.756 2.593-4.293 2.593-7.963v-2c0-3.671-0.831-6.208-2.614-7.984-2.939-2.683-8.293-2.683-10.053-2.683z"></path>
<path fill="#7e57c2" style="fill: var(--color2, #7e57c2)" d="M22.301 19.236c-0.741-0.624-1.083-0.813-2.105-1.427-0.426-0.255-1.075-0.476-1.416-0.476-0.233 0-0.511 0.178-0.682 0.349-0.437 0.437-0.581 0.985-1.347 0.985-0.75 0-2.060-0.763-3-1.75-0.987-0.94-1.75-2.25-1.75-3 0-0.767 0.537-0.92 0.975-1.358 0.171-0.17 0.359-0.449 0.359-0.681 0-0.341-0.221-0.98-0.476-1.406-0.614-1.023-0.802-1.365-1.427-2.105-0.211-0.251-0.452-0.365-0.704-0.366-0.426-0.001-0.985 0.211-1.364 0.493-0.569 0.425-1.165 1.003-1.324 1.723-0.020 0.087-0.034 0.188-0.038 0.292l-0 0.004c-0.031 0.75 0.264 1.511 0.582 2.156 0.749 1.519 1.739 2.99 2.817 4.303 0.345 0.42 0.72 0.811 1.109 1.188 0.372 0.387 0.759 0.75 1.165 1.090l0.023 0.018c1.313 1.078 2.784 2.069 4.303 2.817 0.639 0.315 1.391 0.604 2.133 0.583 0.114-0.003 0.224-0.017 0.329-0.041l-0.012 0.002c0.72-0.159 1.298-0.755 1.723-1.324 0.282-0.379 0.493-0.937 0.493-1.364-0.001-0.252-0.115-0.493-0.366-0.704zM22.667 16c-0.368 0-0.667-0.298-0.667-0.667v0-0.667c0-3.308-2.692-6-6-6-0.368 0-0.667-0.298-0.667-0.667s0.298-0.667 0.667-0.667v0c4.043 0 7.333 3.29 7.333 7.333v0.667c0 0.368-0.298 0.667-0.667 0.667v0zM18.572 14.667c-0.308-0-0.568-0.21-0.644-0.494l-0.001-0.005c-0.186-0.701-0.727-1.242-1.413-1.425l-0.014-0.003c-0.29-0.077-0.5-0.337-0.5-0.646 0-0.368 0.299-0.667 0.667-0.667 0.059 0 0.117 0.008 0.172 0.022l-0.005-0.001c1.169 0.311 2.072 1.214 2.378 2.359l0.005 0.023c0.014 0.051 0.022 0.109 0.022 0.169 0 0.368-0.298 0.667-0.667 0.667-0 0-0 0-0 0h0z"></path>
<path fill="#7e57c2" style="fill: var(--color2, #7e57c2)" d="M20.667 15.333c-0.368 0-0.667-0.298-0.667-0.667v0c0-0 0-0.001 0-0.001 0-2.133-1.671-3.875-3.775-3.989l-0.010-0c-0.357-0.014-0.642-0.307-0.642-0.666 0-0.368 0.298-0.667 0.667-0.667 0.016 0 0.032 0.001 0.047 0.002l-0.002-0c2.82 0.153 5.049 2.477 5.049 5.321 0 0 0 0 0 0.001v-0c0 0.368-0.298 0.667-0.667 0.667v0z"></path>
<path fill="#7e57c2" style="fill: var(--color2, #7e57c2)" d="M16 2.667c-3 0-7.675 0.276-10.523 2.877-2.013 2.005-2.811 4.817-2.811 8.456 0 0.301-0.001 0.637 0.001 1-0.003 0.362-0.001 0.698-0.001 0.999 0 3.639 0.797 6.451 2.811 8.456 1.084 0.99 2.436 1.641 3.856 2.071v3.057c0 1.064 0.699 1.083 0.827 1.083h0.006c0.329-0.001 0.614-0.163 0.899-0.416 0.107-0.095 1.347-1.477 2.695-2.987 0.803 0.051 1.565 0.070 2.239 0.070 3 0 7.674-0.277 10.523-2.878 2.013-2.004 2.811-4.817 2.811-8.456 0-0.301 0.001-0.637-0.001-1 0.003-0.363 0.001-0.698 0.001-1 0-3.639-0.797-6.451-2.811-8.456-2.848-2.601-7.522-2.877-10.522-2.877zM27.333 15.767v0.232c0 3.271-0.697 5.499-2.191 7.008-2.588 2.326-7.518 2.326-9.143 2.326-0.495 0-1.297-0.001-2.245-0.067-0.263 0.296-3.088 3.455-3.088 3.455v-3.909c-1.403-0.337-2.789-0.889-3.809-1.805-1.494-1.509-2.191-3.738-2.191-7.009v-0.232c0-0.234-0.001-0.487 0.001-0.782-0.002-0.267-0.002-0.519-0.001-0.753v-0.232c0-3.271 0.697-5.499 2.191-7.008 2.587-2.326 7.518-2.326 9.143-2.326s6.555 0 9.142 2.326c1.495 1.509 2.191 3.737 2.191 7.008v0.232c0 0.234 0.001 0.487-0.001 0.782 0.002 0.267 0.002 0.519 0.002 0.753z"></path>
</symbol>
<symbol id="telegram" viewBox="0 0 32 32">
<path fill="#3d94ff" style="fill: var(--color3, #3d94ff)" d="M29.333 16c0 7.363-5.97 13.333-13.333 13.333s-13.333-5.97-13.333-13.333 5.97-13.333 13.333-13.333 13.333 5.97 13.333 13.333z"></path>
<path fill="#3d94ff" style="fill: var(--color3, #3d94ff)" opacity="0.05" d="M6.746 15.644c5.437-2.463 11.822-5.136 12.805-5.523 2.168-0.853 3.113 0.019 2.965 1.409-0.182 1.703-1.045 6.66-1.575 10.211-0.311 2.078-1.436 2.715-2.706 1.909-0.963-0.611-4.275-2.78-5.147-3.521-0.594-0.505-1.008-1.072-0.587-1.649 0.123-0.169 0.439-0.509 0.614-0.678 0.879-0.852 0.761-1.035-0.303-0.275-0.127 0.091-0.861 0.623-1.163 0.825-0.74 0.493-1.421 0.52-2.575 0.128-0.944-0.321-1.851-0.568-2.423-0.815-0.79-0.342-1.093-1.483 0.093-2.020z"></path>
<path fill="#3d94ff" style="fill: var(--color3, #3d94ff)" opacity="0.07" d="M7.224 15.727c5.048-2.257 11.256-4.843 12.164-5.209 2.176-0.879 2.977-0.357 2.743 1.341-0.217 1.572-0.989 6.436-1.529 9.697-0.319 1.919-1.249 2.342-2.461 1.558-0.759-0.489-3.815-2.503-4.557-3.089-0.573-0.453-1.167-0.975-0.473-1.732 0.232-0.253 1.513-1.489 2.471-2.409 0.555-0.534 0.357-0.797-0.313-0.339-1.229 0.842-3.239 2.175-3.597 2.417-0.683 0.46-1.325 0.571-2.443 0.219-0.881-0.277-1.731-0.546-2.175-0.719-0.991-0.384-1.004-1.211 0.17-1.735z"></path>
<path fill="#fff" style="fill: var(--color1, #fff)" d="M7.702 15.811c4.66-2.050 10.69-4.549 11.523-4.895 2.183-0.905 2.853-0.732 2.519 1.273-0.24 1.441-0.932 6.213-1.484 9.183-0.327 1.761-1.062 1.97-2.217 1.208-0.555-0.367-3.359-2.221-3.967-2.656-0.555-0.397-1.321-0.874-0.361-1.814 0.342-0.335 2.583-2.475 4.329-4.14 0.229-0.219-0.059-0.578-0.323-0.403-9.571 6.111-11.537 7.432-13.499 8.756l7.468-4.747c-0.627 0.426-1.23 0.621-2.311 0.311-0.817-0.235-1.615-0.515-1.926-0.621-1.197-0.411-0.913-0.943 0.249-1.454z"></path>
</symbol>
<symbol id="phone" viewBox="0 0 32 32">
<path d="M31.282 25.289l-4.942-4.942c-0.984-0.98-2.614-0.95-3.633 0.068l-2.489 2.489c-0.677-0.357-0.838-0.448-0.998-0.539l0.507 0.265c-1.572-0.871-3.724-2.065-5.989-4.331-2.271-2.271-3.466-4.426-4.34-5.999-0.093-0.167-0.181-0.327-0.268-0.48l2.492-2.491c1.020-1.020 1.049-2.65 0.066-3.633l-4.942-4.943c-0.982-0.982-2.613-0.952-3.633 0.068l-1.393 1.401 0.038 0.038c-0.467 0.596-0.858 1.283-1.148 2.024-0.268 0.705-0.435 1.379-0.511 2.053-0.652 5.41 1.82 10.354 8.528 17.063 9.274 9.273 16.747 8.573 17.070 8.538 0.703-0.084 1.375-0.252 2.059-0.517 0.735-0.287 1.422-0.677 2.017-1.142l0.030 0.027 1.411-1.382c1.018-1.020 1.048-2.65 0.066-3.635zM30.119 27.826l-0.622 0.621-0.248 0.238c-0.39 0.377-1.065 0.907-2.051 1.292-0.56 0.215-1.111 0.354-1.673 0.421-0.071 0.007-7.1 0.607-15.8-8.093-7.397-7.397-8.583-11.659-8.086-15.788 0.062-0.547 0.2-1.098 0.419-1.673 0.389-0.991 0.918-1.666 1.292-2.057l0.86-0.868c0.414-0.415 1.061-0.447 1.439-0.068l4.942 4.942c0.378 0.379 0.348 1.025-0.067 1.442l-3.337 3.334 0.308 0.518c0.171 0.289 0.352 0.613 0.546 0.964 0.918 1.656 2.174 3.922 4.6 6.345 2.419 2.421 4.682 3.676 6.333 4.591 0.357 0.197 0.682 0.379 0.975 0.553l0.52 0.308 3.335-3.336c0.416-0.414 1.064-0.445 1.443-0.067l4.939 4.941c0.378 0.379 0.348 1.025-0.067 1.44z"></path>
</symbol>
<symbol id="mail" viewBox="0 0 32 32">
<path d="M31.319 5.106h-30.638c-0.005 0-0.009 0-0.014 0.001l0 0c-0.37 0.007-0.667 0.308-0.667 0.68v20.426c0 0.376 0.305 0.681 0.681 0.681h30.638c0.376 0 0.681-0.305 0.681-0.681v-20.426c0-0.376-0.305-0.681-0.681-0.681zM29.676 6.468l-13.676 13.675-13.675-13.675h27.351zM1.362 7.431l8.569 8.569-8.569 8.569v-17.138zM2.325 25.532l8.569-8.569 4.625 4.625c0.237 0.237 0.608 0.355 0.963 0l4.625-4.625 8.569 8.569h-27.351zM30.638 24.569l-8.569-8.569 8.569-8.569v17.138z"></path>
</symbol>
</defs>
</svg>
